<?xml version="1.0" encoding="iso-8859-1"?>
<!-- Uploaded to: SVG Repo, www.svgrepo.com, Generator: SVG Repo Mixer Tools -->
<svg fill="#000000" height="800px" width="800px" version="1.1" id="Layer_1" xmlns="http://www.w3.org/2000/svg" xmlns:xlink="http://www.w3.org/1999/xlink" 
	 viewBox="0 0 512.001 512.001" xml:space="preserve">
<g>
	<g>
		<g>
			<path d="M81.067,34.133c-14.114,0-25.6-11.486-25.6-25.6C55.467,3.814,51.644,0,46.934,0C42.223,0,38.4,3.814,38.4,8.533
				c0,14.114-11.486,25.6-25.6,25.6c-4.71,0-8.533,3.814-8.533,8.533S8.09,51.2,12.8,51.2c14.114,0,25.6,11.486,25.6,25.6
				c0,4.719,3.823,8.533,8.533,8.533c4.71,0,8.533-3.814,8.533-8.533c0-14.114,11.486-25.6,25.6-25.6
				c4.71,0,8.533-3.814,8.533-8.533S85.777,34.133,81.067,34.133z M46.934,51.226c-2.432-3.243-5.325-6.127-8.559-8.559
				c3.234-2.432,6.127-5.316,8.559-8.559c2.432,3.243,5.325,6.127,8.559,8.559C52.259,45.099,49.366,47.983,46.934,51.226z"/>
			<path d="M482.134,136.534H473.6v-8.533c0-4.719-3.814-8.533-8.533-8.533c-4.719,0-8.533,3.814-8.533,8.533v8.533H448
				c-4.719,0-8.533,3.814-8.533,8.533s3.814,8.533,8.533,8.533h8.533v8.533c0,4.719,3.814,8.533,8.533,8.533
				c4.719,0,8.533-3.814,8.533-8.533v-8.533h8.533c4.719,0,8.533-3.814,8.533-8.533S486.853,136.534,482.134,136.534z"/>
			<path d="M64,366.934c-4.71,0-8.533,3.814-8.533,8.533s3.823,8.533,8.533,8.533s8.533-3.814,8.533-8.533
				S68.711,366.934,64,366.934z"/>
			<path d="M21.334,213.334c-4.71,0-8.533,3.814-8.533,8.533s3.823,8.533,8.533,8.533s8.533-3.814,8.533-8.533
				S26.044,213.334,21.334,213.334z"/>
			<path d="M439.467,298.668c-4.719,0-8.533,3.814-8.533,8.533s3.814,8.533,8.533,8.533S448,311.92,448,307.201
				S444.186,298.668,439.467,298.668z"/>
			<path d="M499.2,477.868c-4.719,0-8.533,3.814-8.533,8.533s3.814,8.533,8.533,8.533s8.533-3.814,8.533-8.533
				S503.919,477.868,499.2,477.868z"/>
			<path d="M277.334,469.334c0-9.421-7.654-17.067-17.067-17.067c-9.412,0-17.067,7.646-17.067,17.067
				c0,9.421,7.654,17.067,17.067,17.067C269.679,486.401,277.334,478.755,277.334,469.334z"/>
			<path d="M405.334,33.801c0-18.637-15.164-33.801-33.8-33.801H149.001c-18.637,0-33.801,15.164-33.801,33.801v17.399h290.133
				V33.801z M226.134,34.134H217.6c-4.71,0-8.533-3.814-8.533-8.533s3.823-8.533,8.533-8.533h8.533c4.71,0,8.533,3.814,8.533,8.533
				S230.844,34.134,226.134,34.134z M294.4,34.134h-42.667c-4.71,0-8.533-3.814-8.533-8.533s3.823-8.533,8.533-8.533H294.4
				c4.71,0,8.533,3.814,8.533,8.533S299.111,34.134,294.4,34.134z"/>
			<path d="M294.4,469.334c0,18.816-15.309,34.133-34.133,34.133s-34.133-15.317-34.133-34.133c0-10.24,4.625-19.345,11.793-25.6
				H115.2V478.2c0,18.637,15.164,33.8,33.801,33.8h222.532c18.637,0,33.8-15.164,33.8-33.8v-34.466H282.607
				C289.775,449.989,294.4,459.094,294.4,469.334z"/>
			<path d="M115.201,76.803c-4.71,0-8.533,3.814-8.533,8.533v8.533c0,4.719,3.823,8.533,8.533,8.533v8.533
				c-4.71,0-8.533,3.814-8.533,8.533v8.533c0,4.719,3.823,8.533,8.533,8.533v8.533c-4.71,0-8.533,3.814-8.533,8.533v8.533
				c0,4.719,3.823,8.533,8.533,8.533v256h290.133v-358.4H115.201V76.803z M313.337,210.136c-2.944-3.686-2.347-9.054,1.331-11.998
				c3.678-2.944,9.054-2.355,11.998,1.331c11.034,13.79,22.605,27.281,33.152,41.446c4.668,6.263,1.579,11.145-2.551,16.299
				c-3.337,4.181-6.682,8.346-10.018,12.518c-6.494,8.124-13.005,16.247-19.499,24.388c-0.367,0.444-0.725,0.896-1.084,1.348
				c-1.69,2.099-4.173,3.2-6.673,3.2c-1.869,0-3.755-0.614-5.325-1.869c-3.678-2.953-4.275-8.32-1.331-11.998l29.867-37.333
				L313.337,210.136z M226.527,330.234l51.2-162.133c1.417-4.497,6.229-7.014,10.709-5.564c4.497,1.417,6.989,6.204,5.572,10.701
				l-51.2,162.133c-1.152,3.635-4.514,5.965-8.141,5.965c-0.853,0-1.715-0.128-2.568-0.401
				C227.602,339.518,225.111,334.723,226.527,330.234z M158.73,245.967c1.596-7.936,11.162-16.529,15.343-21.751l19.046-23.808
				c0.247-0.307,0.503-0.623,0.751-0.939c2.944-3.678,8.32-4.275,11.989-1.331c3.686,2.944,4.284,8.311,1.34,11.998l-29.867,37.333
				l29.867,37.333c2.944,3.678,2.347,9.045-1.34,11.998c-1.57,1.254-3.447,1.869-5.325,1.869c-2.5,0-4.983-1.092-6.665-3.2
				c-4.932-6.178-9.873-12.348-14.814-18.517c-6.263-7.834-13.525-15.462-19.063-23.825
				C158.516,250.883,158.226,248.459,158.73,245.967z"/>
		</g>
	</g>
</g>
</svg>